<svg xmlns="http://www.w3.org/2000/svg" version="1.1" viewBox="-5.0 -10.0 110.0 135.0">
 <path d="m22.363 51.656c1.0547-0.80078 2.3047-1.2188 3.5859-1.2188 0.53516 0 1.0742 0.070312 1.6055 0.21875l4.0234 1.1133c1.1914 0.33203 2.0234 1.4258 2.0234 2.6641v1.957c0 2.3906-1.6094 4.5078-3.9141 5.1445l-2.1367 0.59375c-0.35938 0.097656-0.71875 0.13672-1.082 0.17188h-0.875c-1.1562-0.070312-2.2812-0.44141-3.2383-1.1719-1.4922-1.1328-2.3477-2.8594-2.3477-4.7344s0.85547-3.6016 2.3477-4.7383zm8.3867-26.117c0-5.7891 4.7109-10.5 10.5-10.5s10.5 4.7109 10.5 10.5c0 5.7891-4.7109 10.5-10.5 10.5s-10.5-4.7109-10.5-10.5zm5 0c0 3.0312 2.4688 5.5 5.5 5.5s5.5-2.4688 5.5-5.5-2.4688-5.5-5.5-5.5-5.5 2.4688-5.5 5.5zm-17.453 11.562 3.5-2.8008c0.64062-0.5 0.76172-1.4609 0.23828-2.1016-0.51953-0.64062-1.4609-0.76172-2.1211-0.23828l-3.5 2.8008c-0.058593 0.058593-0.12109 0.078125-0.19922 0.078125h-1.3789v3h1.3789c0.76172 0 1.5-0.26172 2.0781-0.73828zm22.953-9.0625c1.3789 0 2.5-1.1211 2.5-2.5 0-1.3789-1.1211-2.5-2.5-2.5s-2.5 1.1211-2.5 2.5c0 1.3789 1.1211 2.5 2.5 2.5zm51.164 55.688c-1.0898-1.2969-2.4141-1.9375-3.332-2.2422-0.48047-0.16016-0.84766-0.55078-0.97656-1.0391l-5.3203-20.219c-0.68359-1.7109-2.4688-2.9219-4.4922-2.9219h-5.3555c-1.8906 0-3.7227-0.54688-5.3047-1.5859l-2.0938-1.4102c-1.3906-0.91406-3.0156-1.4023-4.6836-1.4023h-12.504c-0.0625 0-0.12109-0.015625-0.18359-0.019531 0.28125 1.8047 0.37109 3.625-0.046875 5.3945-0.37109-2.5039-1.7539-4.7812-3.1797-6.7617-0.085937-0.11328-0.12891-0.24609-0.17969-0.37109-0.62109-0.78516-1.0117-1.7656-1.0117-2.8398v-9.5039c-0.8125 0.15234-1.6484 0.24219-2.5039 0.24219-0.85156 0-1.6836-0.089844-2.4961-0.24219v7.125c0 1.8516-0.34375 3.6602-1.0234 5.3828-0.75 1.8945-1.1289 3.8867-1.1289 5.9219 0 1.3633 0.53125 2.6484 1.4961 3.6133 0.87891 0.87891 2.0312 1.375 3.2617 1.4609h33.066c0.003906 0 0.007813 0.003906 0.011719 0.003906l2.7578-0.003906c0.69141 0 1.2891 0.46875 1.457 1.1406l5.2773 21.398h9.2305c-0.19922-0.35938-0.44531-0.73828-0.75-1.1133zm-83.078-18.426c-1.3789 0-2.5 1.1211-2.5 2.5 0 1.3789 1.1211 2.5 2.5 2.5h65.086c1.1016 0 2.0781-0.73438 2.3906-1.7812l-0.79297-3.2148h-66.688zm-2.5 7.3711v11.922c0 0.20312 0.16406 0.36719 0.36719 0.36719h4.2656c0.20312 0 0.36719-0.16406 0.36719-0.36719v-11.293h-2.5c-0.90625 0-1.7461-0.24219-2.5-0.62891zm5-10.371v-27.445h-5v28.074c0.75391-0.39063 1.5938-0.62891 2.5-0.62891zm52.566 22.293c0 0.20312 0.16406 0.36719 0.36719 0.36719h4.2656c0.20312 0 0.36719-0.16406 0.36719-0.36719v-11.293h-5z"/>
<text x="0.0" y="117.5" font-size="5.0" font-weight="bold" font-family="Arbeit Regular, Helvetica, Arial-Unicode, Arial, Sans-serif" fill="#000000">Created by agus raharjo</text><text x="0.0" y="122.5" font-size="5.0" font-weight="bold" font-family="Arbeit Regular, Helvetica, Arial-Unicode, Arial, Sans-serif" fill="#000000">from Noun Project</text></svg>