<svg xmlns="http://www.w3.org/2000/svg" version="1.1" viewBox="-5.0 -10.0 110.0 135.0">
 <path d="m30 46v20c0 1.1055-0.89453 2-2 2h-4c-1.1055 0-2-0.89453-2-2v-48c0-1.1055 0.89453-2 2-2h4c1.1055 0 2 0.89453 2 2v20h6v-2c0-1.1055 0.89453-2 2-2h2c1.1055 0 2 0.89453 2 2v2h2v-2c0-1.1055 0.89453-2 2-2h2c1.1055 0 2 0.89453 2 2v2h2v-2c0-1.1055 0.89453-2 2-2h2c1.1055 0 2 0.89453 2 2v2h2v-2c0-1.1055 0.89453-2 2-2h2c1.1055 0 2 0.89453 2 2v2h4v-20c0-1.1055 0.89453-2 2-2h4c1.1055 0 2 0.89453 2 2v48c0 1.1055-0.89453 2-2 2h-4c-1.1055 0-2-0.89453-2-2v-20h-4v1c0 1.6562-1.3438 3-3 3s-3-1.3438-3-3v-1h-2v1c0 1.6562-1.3438 3-3 3s-3-1.3438-3-3v-1h-2v1c0 0.79688-0.31641 1.5586-0.87891 2.1211s-1.3242 0.87891-2.1211 0.87891h-6v5h2v-3h4c1.3242 0 2.5977-0.52734 3.5352-1.4648 0.16797-0.16797 0.32422-0.34766 0.46484-0.53516 0.91406 1.2148 2.3672 2 4 2 1.6367 0 3.0859-0.78516 4-2 0.91406 1.2148 2.3633 2 4 2 1.125 0 2.1641-0.37109 3-1v7.7578c0 1.0625-0.42188 2.0781-1.1719 2.8281l-1.8281 1.8281v19.586c0 0.55078-0.44922 1-1 1h-18c-0.55078 0-1-0.44922-1-1v-17.516c0-1.3242-0.52734-2.5977-1.4648-3.5352-2.6211-2.6211-7.2422-7.2422-7.2422-7.2422-0.1875-0.1875-0.29297-0.44141-0.29297-0.70703v-7c0-0.35156 0.058594-0.6875 0.17188-1zm30 34c0.55078 0 1 0.44922 1 1s-0.44922 1-1 1-1-0.44922-1-1 0.44922-1 1-1zm-1-11v8c0 0.55078 0.44922 1 1 1s1-0.44922 1-1v-8c0-0.55078-0.44922-1-1-1s-1 0.44922-1 1zm-41-8v6c0 0.55078 0.44922 1 1 1s1-0.44922 1-1v-6c0-0.55078-0.44922-1-1-1s-1 0.44922-1 1zm62 0v6c0 0.55078 0.44922 1 1 1s1-0.44922 1-1v-6c0-0.55078-0.44922-1-1-1s-1 0.44922-1 1zm-72-9v5c0 0.55078 0.44922 1 1 1s1-0.44922 1-1v-5c0-0.55078-0.44922-1-1-1s-1 0.44922-1 1zm82 0v5c0 0.55078 0.44922 1 1 1s1-0.44922 1-1v-5c0-0.55078-0.44922-1-1-1s-1 0.44922-1 1zm-78-16.828v-7.1719c0-1.1055 0.89453-2 2-2h4c1.1055 0 2 0.89453 2 2v28c0 1.1055-0.89453 2-2 2h-4c-1.1055 0-2-0.89453-2-2v-7.1719c-0.3125 0.10938-0.64844 0.17188-1 0.17188h-4c-1.6562 0-3-1.3438-3-3v-8c0-1.6562 1.3438-3 3-3h4c0.35156 0 0.6875 0.058594 1 0.17188zm76 13.656c0.3125 0.10938 0.64844 0.17188 1 0.17188h4c1.6562 0 3-1.3438 3-3v-8c0-1.6562-1.3438-3-3-3h-4c-0.35156 0-0.6875 0.058594-1 0.17188v-7.1719c0-1.1055-0.89453-2-2-2h-4c-1.1055 0-2 0.89453-2 2v28c0 1.1055 0.89453 2 2 2h4c1.1055 0 2-0.89453 2-2zm0-2.8281c0 0.55078 0.44922 1 1 1h4c0.55078 0 1-0.44922 1-1v-8c0-0.55078-0.44922-1-1-1h-4c-0.55078 0-1 0.44922-1 1zm-76-8c0-0.55078-0.44922-1-1-1h-4c-0.55078 0-1 0.44922-1 1v8c0 0.55078 0.44922 1 1 1h4c0.55078 0 1-0.44922 1-1zm24 2h-6v4h22v-4h-2v2h-6v-2h-2v2h-6zm22 0v4h2v-4zm8 0v4h4v-4zm26-8v-2.9688c0-1.8672-0.74219-3.6523-2.0586-4.9727-1.3203-1.3203-3.1055-2.0586-4.9727-2.0586h-1.9688c-0.55078 0-1 0.44922-1 1s0.44922 1 1 1h1.9688c1.3359 0 2.6133 0.53125 3.5586 1.4727 0.94531 0.94531 1.4727 2.2227 1.4727 3.5586v2.9688c0 0.55078 0.44922 1 1 1s1-0.44922 1-1zm-82 0v-2.9688c0-1.3359 0.53125-2.6133 1.4727-3.5586 0.94531-0.94531 2.2227-1.4727 3.5586-1.4727h1.9688c0.55078 0 1-0.44922 1-1s-0.44922-1-1-1h-1.9688c-1.8672 0-3.6523 0.74219-4.9727 2.0586-1.3203 1.3203-2.0586 3.1055-2.0586 4.9727v2.9688c0 0.55078 0.44922 1 1 1s1-0.44922 1-1z" fill-rule="evenodd"/>
<text x="0.0" y="117.5" font-size="5.0" font-weight="bold" font-family="Arbeit Regular, Helvetica, Arial-Unicode, Arial, Sans-serif" fill="#000000">Created by Ranah Pixel Studio</text><text x="0.0" y="122.5" font-size="5.0" font-weight="bold" font-family="Arbeit Regular, Helvetica, Arial-Unicode, Arial, Sans-serif" fill="#000000">from Noun Project</text></svg>