<svg xmlns="http://www.w3.org/2000/svg" version="1.1" viewBox="-5.0 -10.0 110.0 135.0">
 <path d="m41.586 16.461 0.26172 2.625c0.03125 0.32812 0.32812 0.59766 0.66016 0.59766h9.5664c0.33203 0 0.65625-0.26172 0.72266-0.58984l0.55859-2.7305c0.03125-0.16406 0.19531-0.29688 0.35938-0.29688h9.8906c0.16797 0 0.32812 0.13281 0.36328 0.29688l0.65234 3.2031c0.066406 0.32422 0.26172 0.82031 0.43359 1.1055l2.6328 4.3906c0.21484 0.35938 0.71094 0.74609 1.1094 0.86719l3.1094 0.94141c0.79688 0.24219 1.4961 1.1094 1.5664 1.9375l0.50391 5.9453c0.066407 0.82812-0.55078 1.5-1.3828 1.5h-45.188c-0.83203 0-1.4492-0.67188-1.3828-1.5l0.50391-5.9453c0.070312-0.82812 0.76953-1.6953 1.5664-1.9375l2.6758-0.8125c0.63672-0.19141 1.2461-0.87891 1.3594-1.5352l1.5-8.7852c0.19531-1.9766 1.5586-3.5859 3.9453-3.5859 1.4922 0 1.8242 0.35938 2.4922 0.97656 5.1836-0.88281 12.172-1.1172 24.91-0.98047 0.33203 0 0.60156 0.27344 0.60156 0.60937v1.1016c0 0.33203-0.25 0.57422-0.55859 0.54297l-0.55469-0.050782c-0.30859-0.027343-0.55859 0.21094-0.55859 0.52734 0 0.15625-0.13281 0.28516-0.30078 0.28516h-9.8906c-0.16406 0-0.30078-0.13281-0.30078-0.30078v-0.082031c0-0.33594-0.26953-0.58594-0.60156-0.5625-3.3789 0.24219-7.3125 0.95703-11.227 2.2422zm-8.875-3.2656-3.9766-4.793c-0.31641-0.38281-0.27344-0.96484 0.097656-1.2969l0.42578-0.375c0.37109-0.33203 0.95313-0.30859 1.2969 0.050781l4.1797 4.3633c0.23047 0.23828 0.16406 0.53906-0.14062 0.66406-0.33594 0.13672-1.1055 0.93359-1.2617 1.2969-0.13281 0.30469-0.41016 0.34375-0.62109 0.089843zm31.172 71.184-0.49609 4.7305c-0.074219 0.69141-0.69922 1.2539-1.3945 1.2539h-8.3906c-0.69922 0-1.2617-0.56641-1.2617-1.2617v-45.441c0-0.69531 0.5625-1.2617 1.2617-1.2617h13.438c0.69922 0 1.2031 0.5625 1.1328 1.2539l-0.5 4.7266h-10.176c-0.16406 0-0.30078 0.13672-0.30078 0.30078v0.39844c0 0.16797 0.13672 0.30078 0.30078 0.30078h10.07l-0.35547 3.375h-6.4609c-0.16406 0-0.30078 0.13672-0.30078 0.30078v0.39844c0 0.16797 0.13672 0.30078 0.30078 0.30078h6.3555l-0.35156 3.375h-6.0039c-0.16406 0-0.30078 0.13672-0.30078 0.30078v0.39844c0 0.16797 0.13672 0.30078 0.30078 0.30078h5.8984l-0.35938 3.375h-8.793c-0.16406 0-0.30078 0.13672-0.30078 0.30078v0.39844c0 0.16797 0.13672 0.30078 0.30078 0.30078h8.6914l-0.35547 3.375h-5.082c-0.16406 0-0.30078 0.13672-0.30078 0.30078v0.39844c0 0.16797 0.13672 0.30078 0.30078 0.30078h4.9766l-0.35547 3.375h-4.6211c-0.16406 0-0.30078 0.13672-0.30078 0.30078v0.39844c0 0.16797 0.13672 0.30078 0.30078 0.30078h4.5156l-0.35547 3.375h-7.4141c-0.16406 0-0.30078 0.13672-0.30078 0.30078v0.39844c0 0.16797 0.13672 0.30078 0.30078 0.30078h7.3086l-0.35547 3.375h-3.6992c-0.16406 0-0.30078 0.13672-0.30078 0.30078v0.39844c0 0.16797 0.13672 0.30078 0.30078 0.30078h3.5938l-0.35547 3.375h-3.2383c-0.16406 0-0.30078 0.13672-0.30078 0.30078v0.39844c0 0.16797 0.13672 0.30078 0.30078 0.30078zm-35.566-45.121 5.7109 54.246c0.085937 0.82422 0.83203 1.4961 1.6641 1.4961h28.617c0.83203 0 1.5781-0.67188 1.6641-1.4961l5.7109-54.246c0.085937-0.82422-0.51562-1.4961-1.3477-1.4961h-40.672c-0.83203 0-1.4336 0.67188-1.3477 1.4961z" fill-rule="evenodd"/>
<text x="0.0" y="117.5" font-size="5.0" font-weight="bold" font-family="Arbeit Regular, Helvetica, Arial-Unicode, Arial, Sans-serif" fill="#000000">Created by Irham Arrasyad</text><text x="0.0" y="122.5" font-size="5.0" font-weight="bold" font-family="Arbeit Regular, Helvetica, Arial-Unicode, Arial, Sans-serif" fill="#000000">from Noun Project</text></svg>