<svg xmlns="http://www.w3.org/2000/svg" version="1.1" viewBox="-5.0 -10.0 110.0 135.0">
 <path d="m90 49.293c0 0.80078-0.64844 1.4492-1.4492 1.4492h-26.254c-0.55469 0-1.0625-0.31641-1.3047-0.81641l-2.9062-5.9922-2.2266 5.8711c-0.21484 0.5625-0.75391 0.93359-1.3555 0.93359h-4.2305l-3.4766 8.2383c-0.22656 0.53516-0.75391 0.88672-1.3359 0.88672h-0.027344c-0.59375-0.011719-1.1172-0.38281-1.3281-0.93359l-6.6406-17.508-4.6406 8.5625c-0.25391 0.46875-0.74219 0.75781-1.2734 0.75781h-20.109c-0.80078 0-1.4492-0.64844-1.4492-1.4492s0.64844-1.4492 1.4492-1.4492h19.246l5.7383-10.582c0.26953-0.49609 0.8125-0.78906 1.3711-0.75391 0.56641 0.039063 1.0547 0.40234 1.2578 0.92969l6.4766 17.082 2.4453-5.793c0.22656-0.53516 0.75391-0.88672 1.3359-0.88672h4.1914l3.0625-8.082c0.20312-0.53906 0.71484-0.90625 1.2891-0.93359 0.5625-0.03125 1.1133 0.29688 1.3672 0.81641l3.9766 8.1992h25.352c0.80078 0.007812 1.4492 0.65625 1.4492 1.4531zm-67.508-4.3438h6.4883l4.9141-9.0586c0.75391-1.4062 2.2188-2.2734 3.8164-2.2734l0.26953 0.011718c1.707 0.11719 3.1797 1.2148 3.7773 2.7969l3.9609 10.438c0.80078-1.1758 2.1289-1.9062 3.5938-1.9062h2.1992l2.3516-6.207c0.61719-1.6289 2.1289-2.7266 3.8633-2.8047h0.20313c1.6484 0 3.1719 0.96484 3.8945 2.4492l3.1914 6.5625h15.539c2.9883-6.168 2.0547-10.969 0.83984-13.793-2.6406-6.1602-9.5898-10.062-16.879-9.5234-6.4297 0.48047-11.613 4.3086-14.438 10.469-2.7188-6.1289-7.5195-9.8906-13.609-10.496-7.1328-0.70312-14.496 3.3047-17.516 9.5312-2.082 4.2891-1.9297 9.0898 0.30859 13.812l3.2305-0.003906zm39.809 8.6875c-1.6484 0-3.1719-0.95312-3.8945-2.4297-0.73047 1.4648-2.2461 2.4297-3.8945 2.4297h-2.3125l-2.7383 6.4688c-0.67578 1.6094-2.2461 2.6602-4 2.6602l-0.11719-0.011719c-1.7734-0.046875-3.3164-1.1367-3.9414-2.7969l-4.3945-11.605-1.6406 3.0078c-0.75391 1.4062-2.2188 2.2734-3.8086 2.2734h-5.7148c2.168 2.1094 4.5586 4.1836 7.0664 6.3516 6.3047 5.4453 12.82 11.074 15.828 17.641 0.24219 0.51953 0.75391 0.84766 1.3203 0.84766 0.57031 0 1.0781-0.32812 1.3125-0.84766 2.9883-6.5625 9.5039-12.184 15.797-17.621 1.5312-1.3281 3.1133-2.6992 4.5977-4.0391 0.87891-0.78906 1.6875-1.5703 2.4297-2.332h-11.895z"/>
<text x="0.0" y="117.5" font-size="5.0" font-weight="bold" font-family="Arbeit Regular, Helvetica, Arial-Unicode, Arial, Sans-serif" fill="#000000">Created by kakhim</text><text x="0.0" y="122.5" font-size="5.0" font-weight="bold" font-family="Arbeit Regular, Helvetica, Arial-Unicode, Arial, Sans-serif" fill="#000000">from Noun Project</text></svg>