<svg xmlns="http://www.w3.org/2000/svg" version="1.1" viewBox="-5.0 -10.0 110.0 135.0">
 <path d="m96.258 20.93h-1.5781v-7.3984c0-5.5977-8.4766-5.6016-8.4766 0v7.3945h-3.293v-12.891c5.1406-0.33203 4.8906-8.0352-0.26172-8.0352h-65.297c-5.1484 0-5.4023 7.7031-0.26172 8.0352v12.891h-3.293v-7.3945c0-5.5977-8.4766-5.6016-8.4766 0v7.3984h-1.5781c-1.8008 0-3.2617 1.4648-3.2617 3.2656v2.0117c0 1.8008 1.4648 3.2656 3.2617 3.2656l1.5781-0.003906v7.3984c0 5.5977 8.4766 5.6055 8.4766 0v-7.3984h3.293v21.691c-2.7891-1.4062-6.1328 0.63281-6.1328 3.7891v4.7891h-1.5781c-1.8008 0-3.2656 1.4648-3.2656 3.2656v2.0078c0 1.8008 1.4648 3.2656 3.2656 3.2656h1.5781v6.0977c0 3.1562 3.3398 5.1953 6.1328 3.7891v12.438h-0.98438c-2.5977 0-4.7148 2.1133-4.7148 4.7148l-0.003906 3.5117c0 0.64844 0.52734 1.1719 1.1719 1.1719h18.391c0.64844 0 1.1719-0.52344 1.1719-1.1719v-3.5078c0-2.6016-2.1133-4.7148-4.7148-4.7148h-0.98438v-61.137h47.156v61.137h-0.98828c-2.5977 0-4.7148 2.1133-4.7148 4.7148l0.003906 3.5078c0 0.64844 0.52344 1.1719 1.1719 1.1719h18.391c0.64844 0 1.1719-0.52344 1.1719-1.1719v-3.5078c0-2.6016-2.1133-4.7148-4.7148-4.7148h-0.98828v-12.438c2.793 1.4062 6.1328-0.63672 6.1328-3.7891v-6.0977h1.5781c1.7969 0 3.2617-1.4648 3.2617-3.2656v-2.0078c0-1.8008-1.4648-3.2656-3.2617-3.2656h-1.5781v-4.7891c0-3.1484-3.3359-5.1953-6.1328-3.7891v-21.691h3.293v7.3945c0 5.6016 8.4766 5.6055 8.4766 0v-7.3984h1.5781c1.8008 0 3.2617-1.4648 3.2617-3.2656v-2.0117c0-1.7969-1.4609-3.2617-3.2617-3.2617zm-69.836-0.003907v-12.883h47.156v12.883zm-9.0703-18.582h65.293c2.2148 0 2.2188 3.3555 0 3.3555h-65.293c-2.2188 0-2.2148-3.3555 0-3.3555zm-13.609 24.781c-0.50781 0-0.91797-0.41406-0.91797-0.92188v-2.0117c0-0.50781 0.41406-0.92188 0.91797-0.92188l1.5781 0.003907v3.8516zm20.336 23.402h-4.6445v-5.8633h4.6445zm-4.6445 2.3438h4.6445v5.8633l-4.6445-0.003906zm0 8.2031h4.6445v5.8633h-4.6445zm4.6445-18.758h-4.6445v-5.8633h4.6445zm-10.777 32.062v-19.43c0-2.5039 3.7891-2.5 3.7891 0v19.43c0 2.5078-3.7891 2.4961-3.7891 0zm16.477 20.941v2.3359h-16.047v-2.3359c0-1.3086 1.0664-2.3711 2.3711-2.3711h11.305c1.3125 0 2.3711 1.0625 2.3711 2.3711zm46.145-42.449h4.6445v5.8633h-4.6445zm4.6445-2.3438h-4.6445v-5.8633h4.6445zm-4.6445 10.547h4.6445v5.8633h-4.6445zm4.6445-18.758h-4.6445v-5.8633h4.6445zm5.6992 53.004v2.3359h-16.047v-2.3359c0-1.3086 1.0625-2.3711 2.3711-2.3711h11.305c1.3086 0 2.3711 1.0625 2.3711 2.3711zm0.43359-40.371v19.43c0 2.5-3.7891 2.5117-3.7891 0v-19.43c0-2.5 3.7891-2.5 3.7891 0zm-72.902-27.824v-3.8516h72.406v3.8516zm83.379-0.92188c0 0.50781-0.41406 0.92188-0.91797 0.92188h-1.5781v-3.8516h1.5781c0.50781 0 0.91797 0.41406 0.91797 0.92187z"/>
<text x="0.0" y="117.5" font-size="5.0" font-weight="bold" font-family="Arbeit Regular, Helvetica, Arial-Unicode, Arial, Sans-serif" fill="#000000">Created by Ferifrey</text><text x="0.0" y="122.5" font-size="5.0" font-weight="bold" font-family="Arbeit Regular, Helvetica, Arial-Unicode, Arial, Sans-serif" fill="#000000">from Noun Project</text></svg>