<svg xmlns="http://www.w3.org/2000/svg">
  <defs>
    <!-- Dumbbell -->
    <symbol id="icon-dumbbell" viewBox="-5.0 -10.0 110.0 135.0">
      <!-- paste the <path>…</path> (and any <g> etc.) from dumbbell.svg here -->
      <path d="m30 46v20c0 1.1055-0.89453 2-2 2h-4c-1.1055 0-2-0.89453-2-2v-48c0-1.1055 0.89453-2 2-2h4c1.1055 0 2 0.89453 2 2v20h6v-2c0-1.1055 0.89453-2 2-2h2c1.1055 0 2 0.89453 2 2v2h2v-2c0-1.1055 0.89453-2 2-2h2c1.1055 0 2 0.89453 2 2v2h2v-2c0-1.1055 0.89453-2 2-2h2c1.1055 0 2 0.89453 2 2v2h2v-2c0-1.1055 0.89453-2 2-2h2c1.1055 0 2 0.89453 2 2v2h4v-20c0-1.1055 0.89453-2 2-2h4c1.1055 0 2 0.89453 2 2v48c0 1.1055-0.89453 2-2 2h-4c-1.1055 0-2-0.89453-2-2v-20h-4v1c0 1.6562-1.3438 3-3 3s-3-1.3438-3-3v-1h-2v1c0 1.6562-1.3438 3-3 3s-3-1.3438-3-3v-1h-2v1c0 0.79688-0.31641 1.5586-0.87891 2.1211s-1.3242 0.87891-2.1211 0.87891h-6v5h2v-3h4c1.3242 0 2.5977-0.52734 3.5352-1.4648 0.16797-0.16797 0.32422-0.34766 0.46484-0.53516 0.91406 1.2148 2.3672 2 4 2 1.6367 0 3.0859-0.78516 4-2 0.91406 1.2148 2.3633 2 4 2 1.125 0 2.1641-0.37109 3-1v7.7578c0 1.0625-0.42188 2.0781-1.1719 2.8281l-1.8281 1.8281v19.586c0 0.55078-0.44922 1-1 1h-18c-0.55078 0-1-0.44922-1-1v-17.516c0-1.3242-0.52734-2.5977-1.4648-3.5352-2.6211-2.6211-7.2422-7.2422-7.2422-7.2422-0.1875-0.1875-0.29297-0.44141-0.29297-0.70703v-7c0-0.35156 0.058594-0.6875 0.17188-1zm30 34c0.55078 0 1 0.44922 1 1s-0.44922 1-1 1-1-0.44922-1-1 0.44922-1 1-1zm-1-11v8c0 0.55078 0.44922 1 1 1s1-0.44922 1-1v-8c0-0.55078-0.44922-1-1-1s-1 0.44922-1 1zm-41-8v6c0 0.55078 0.44922 1 1 1s1-0.44922 1-1v-6c0-0.55078-0.44922-1-1-1s-1 0.44922-1 1zm62 0v6c0 0.55078 0.44922 1 1 1s1-0.44922 1-1v-6c0-0.55078-0.44922-1-1-1s-1 0.44922-1 1zm-72-9v5c0 0.55078 0.44922 1 1 1s1-0.44922 1-1v-5c0-0.55078-0.44922-1-1-1s-1 0.44922-1 1zm82 0v5c0 0.55078 0.44922 1 1 1s1-0.44922 1-1v-5c0-0.55078-0.44922-1-1-1s-1 0.44922-1 1zm-78-16.828v-7.1719c0-1.1055 0.89453-2 2-2h4c1.1055 0 2 0.89453 2 2v28c0 1.1055-0.89453 2-2 2h-4c-1.1055 0-2-0.89453-2-2v-7.1719c-0.3125 0.10938-0.64844 0.17188-1 0.17188h-4c-1.6562 0-3-1.3438-3-3v-8c0-1.6562 1.3438-3 3-3h4c0.35156 0 0.6875 0.058594 1 0.17188zm76 13.656c0.3125 0.10938 0.64844 0.17188 1 0.17188h4c1.6562 0 3-1.3438 3-3v-8c0-1.6562-1.3438-3-3-3h-4c-0.35156 0-0.6875 0.058594-1 0.17188v-7.1719c0-1.1055-0.89453-2-2-2h-4c-1.1055 0-2 0.89453-2 2v28c0 1.1055 0.89453 2 2 2h4c1.1055 0 2-0.89453 2-2zm0-2.8281c0 0.55078 0.44922 1 1 1h4c0.55078 0 1-0.44922 1-1v-8c0-0.55078-0.44922-1-1-1h-4c-0.55078 0-1 0.44922-1 1zm-76-8c0-0.55078-0.44922-1-1-1h-4c-0.55078 0-1 0.44922-1 1v8c0 0.55078 0.44922 1 1 1h4c0.55078 0 1-0.44922 1-1zm24 2h-6v4h22v-4h-2v2h-6v-2h-2v2h-6zm22 0v4h2v-4zm8 0v4h4v-4zm26-8v-2.9688c0-1.8672-0.74219-3.6523-2.0586-4.9727-1.3203-1.3203-3.1055-2.0586-4.9727-2.0586h-1.9688c-0.55078 0-1 0.44922-1 1s0.44922 1 1 1h1.9688c1.3359 0 2.6133 0.53125 3.5586 1.4727 0.94531 0.94531 1.4727 2.2227 1.4727 3.5586v2.9688c0 0.55078 0.44922 1 1 1s1-0.44922 1-1zm-82 0v-2.9688c0-1.3359 0.53125-2.6133 1.4727-3.5586 0.94531-0.94531 2.2227-1.4727 3.5586-1.4727h1.9688c0.55078 0 1-0.44922 1-1s-0.44922-1-1-1h-1.9688c-1.8672 0-3.6523 0.74219-4.9727 2.0586-1.3203 1.3203-2.0586 3.1055-2.0586 4.9727v2.9688c0 0.55078 0.44922 1 1 1s1-0.44922 1-1z" fill-rule="evenodd"/>
    </symbol>

    <!-- Bench Press -->
    <symbol id="icon-bench-press" viewBox="-5.0 -10.0 110.0 135.0">
      <!-- paste bench-press.svg content -->
      <path d="m22.363 51.656c1.0547-0.80078 2.3047-1.2188 3.5859-1.2188 0.53516 0 1.0742 0.070312 1.6055 0.21875l4.0234 1.1133c1.1914 0.33203 2.0234 1.4258 2.0234 2.6641v1.957c0 2.3906-1.6094 4.5078-3.9141 5.1445l-2.1367 0.59375c-0.35938 0.097656-0.71875 0.13672-1.082 0.17188h-0.875c-1.1562-0.070312-2.2812-0.44141-3.2383-1.1719-1.4922-1.1328-2.3477-2.8594-2.3477-4.7344s0.85547-3.6016 2.3477-4.7383zm8.3867-26.117c0-5.7891 4.7109-10.5 10.5-10.5s10.5 4.7109 10.5 10.5c0 5.7891-4.7109 10.5-10.5 10.5s-10.5-4.7109-10.5-10.5zm5 0c0 3.0312 2.4688 5.5 5.5 5.5s5.5-2.4688 5.5-5.5-2.4688-5.5-5.5-5.5-5.5 2.4688-5.5 5.5zm-17.453 11.562 3.5-2.8008c0.64062-0.5 0.76172-1.4609 0.23828-2.1016-0.51953-0.64062-1.4609-0.76172-2.1211-0.23828l-3.5 2.8008c-0.058593 0.058593-0.12109 0.078125-0.19922 0.078125h-1.3789v3h1.3789c0.76172 0 1.5-0.26172 2.0781-0.73828zm22.953-9.0625c1.3789 0 2.5-1.1211 2.5-2.5 0-1.3789-1.1211-2.5-2.5-2.5s-2.5 1.1211-2.5 2.5c0 1.3789 1.1211 2.5 2.5 2.5zm51.164 55.688c-1.0898-1.2969-2.4141-1.9375-3.332-2.2422-0.48047-0.16016-0.84766-0.55078-0.97656-1.0391l-5.3203-20.219c-0.68359-1.7109-2.4688-2.9219-4.4922-2.9219h-5.3555c-1.8906 0-3.7227-0.54688-5.3047-1.5859l-2.0938-1.4102c-1.3906-0.91406-3.0156-1.4023-4.6836-1.4023h-12.504c-0.0625 0-0.12109-0.015625-0.18359-0.019531 0.28125 1.8047 0.37109 3.625-0.046875 5.3945-0.37109-2.5039-1.7539-4.7812-3.1797-6.7617-0.085937-0.11328-0.12891-0.24609-0.17969-0.37109-0.62109-0.78516-1.0117-1.7656-1.0117-2.8398v-9.5039c-0.8125 0.15234-1.6484 0.24219-2.5039 0.24219-0.85156 0-1.6836-0.089844-2.4961-0.24219v7.125c0 1.8516-0.34375 3.6602-1.0234 5.3828-0.75 1.8945-1.1289 3.8867-1.1289 5.9219 0 1.3633 0.53125 2.6484 1.4961 3.6133 0.87891 0.87891 2.0312 1.375 3.2617 1.4609h33.066c0.003906 0 0.007813 0.003906 0.011719 0.003906l2.7578-0.003906c0.69141 0 1.2891 0.46875 1.457 1.1406l5.2773 21.398h9.2305c-0.19922-0.35938-0.44531-0.73828-0.75-1.1133zm-83.078-18.426c-1.3789 0-2.5 1.1211-2.5 2.5 0 1.3789 1.1211 2.5 2.5 2.5h65.086c1.1016 0 2.0781-0.73438 2.3906-1.7812l-0.79297-3.2148h-66.688zm-2.5 7.3711v11.922c0 0.20312 0.16406 0.36719 0.36719 0.36719h4.2656c0.20312 0 0.36719-0.16406 0.36719-0.36719v-11.293h-2.5c-0.90625 0-1.7461-0.24219-2.5-0.62891zm5-10.371v-27.445h-5v28.074c0.75391-0.39063 1.5938-0.62891 2.5-0.62891zm52.566 22.293c0 0.20312 0.16406 0.36719 0.36719 0.36719h4.2656c0.20312 0 0.36719-0.16406 0.36719-0.36719v-11.293h-5z"/>
    </symbol>

    <!-- Squat Rack -->
    <symbol id="icon-squat-rack" viewBox="-5.0 -10.0 110.0 135.0">
      <!-- paste squat-rack.svg content -->
      <path d="m96.258 20.93h-1.5781v-7.3984c0-5.5977-8.4766-5.6016-8.4766 0v7.3945h-3.293v-12.891c5.1406-0.33203 4.8906-8.0352-0.26172-8.0352h-65.297c-5.1484 0-5.4023 7.7031-0.26172 8.0352v12.891h-3.293v-7.3945c0-5.5977-8.4766-5.6016-8.4766 0v7.3984h-1.5781c-1.8008 0-3.2617 1.4648-3.2617 3.2656v2.0117c0 1.8008 1.4648 3.2656 3.2617 3.2656l1.5781-0.003906v7.3984c0 5.5977 8.4766 5.6055 8.4766 0v-7.3984h3.293v21.691c-2.7891-1.4062-6.1328 0.63281-6.1328 3.7891v4.7891h-1.5781c-1.8008 0-3.2656 1.4648-3.2656 3.2656v2.0078c0 1.8008 1.4648 3.2656 3.2656 3.2656h1.5781v6.0977c0 3.1562 3.3398 5.1953 6.1328 3.7891v12.438h-0.98438c-2.5977 0-4.7148 2.1133-4.7148 4.7148l-0.003906 3.5117c0 0.64844 0.52734 1.1719 1.1719 1.1719h18.391c0.64844 0 1.1719-0.52344 1.1719-1.1719v-3.5078c0-2.6016-2.1133-4.7148-4.7148-4.7148h-0.98438v-61.137h47.156v61.137h-0.98828c-2.5977 0-4.7148 2.1133-4.7148 4.7148l0.003906 3.5078c0 0.64844 0.52344 1.1719 1.1719 1.1719h18.391c0.64844 0 1.1719-0.52344 1.1719-1.1719v-3.5078c0-2.6016-2.1133-4.7148-4.7148-4.7148h-0.98828v-12.438c2.793 1.4062 6.1328-0.63672 6.1328-3.7891v-6.0977h1.5781c1.7969 0 3.2617-1.4648 3.2617-3.2656v-2.0078c0-1.8008-1.4648-3.2656-3.2617-3.2656h-1.5781v-4.7891c0-3.1484-3.3359-5.1953-6.1328-3.7891v-21.691h3.293v7.3945c0 5.6016 8.4766 5.6055 8.4766 0v-7.3984h1.5781c1.8008 0 3.2617-1.4648 3.2617-3.2656v-2.0117c0-1.7969-1.4609-3.2617-3.2617-3.2617zm-69.836-0.003907v-12.883h47.156v12.883zm-9.0703-18.582h65.293c2.2148 0 2.2188 3.3555 0 3.3555h-65.293c-2.2188 0-2.2148-3.3555 0-3.3555zm-13.609 24.781c-0.50781 0-0.91797-0.41406-0.91797-0.92188v-2.0117c0-0.50781 0.41406-0.92188 0.91797-0.92188l1.5781 0.003907v3.8516zm20.336 23.402h-4.6445v-5.8633h4.6445zm-4.6445 2.3438h4.6445v5.8633l-4.6445-0.003906zm0 8.2031h4.6445v5.8633h-4.6445zm4.6445-18.758h-4.6445v-5.8633h4.6445zm-10.777 32.062v-19.43c0-2.5039 3.7891-2.5 3.7891 0v19.43c0 2.5078-3.7891 2.4961-3.7891 0zm16.477 20.941v2.3359h-16.047v-2.3359c0-1.3086 1.0664-2.3711 2.3711-2.3711h11.305c1.3125 0 2.3711 1.0625 2.3711 2.3711zm46.145-42.449h4.6445v5.8633h-4.6445zm4.6445-2.3438h-4.6445v-5.8633h4.6445zm-4.6445 10.547h4.6445v5.8633h-4.6445zm4.6445-18.758h-4.6445v-5.8633h4.6445zm5.6992 53.004v2.3359h-16.047v-2.3359c0-1.3086 1.0625-2.3711 2.3711-2.3711h11.305c1.3086 0 2.3711 1.0625 2.3711 2.3711zm0.43359-40.371v19.43c0 2.5-3.7891 2.5117-3.7891 0v-19.43c0-2.5 3.7891-2.5 3.7891 0zm-72.902-27.824v-3.8516h72.406v3.8516zm83.379-0.92188c0 0.50781-0.41406 0.92188-0.91797 0.92188h-1.5781v-3.8516h1.5781c0.50781 0 0.91797 0.41406 0.91797 0.92187z"/>
    </symbol>

    <!-- Nutrition -->
    <symbol id="icon-nutrition" viewBox="-5.0 -10.0 110.0 135.0">
      <!-- paste nutrition.svg content -->
      <path d="m41.586 16.461 0.26172 2.625c0.03125 0.32812 0.32812 0.59766 0.66016 0.59766h9.5664c0.33203 0 0.65625-0.26172 0.72266-0.58984l0.55859-2.7305c0.03125-0.16406 0.19531-0.29688 0.35938-0.29688h9.8906c0.16797 0 0.32812 0.13281 0.36328 0.29688l0.65234 3.2031c0.066406 0.32422 0.26172 0.82031 0.43359 1.1055l2.6328 4.3906c0.21484 0.35938 0.71094 0.74609 1.1094 0.86719l3.1094 0.94141c0.79688 0.24219 1.4961 1.1094 1.5664 1.9375l0.50391 5.9453c0.066407 0.82812-0.55078 1.5-1.3828 1.5h-45.188c-0.83203 0-1.4492-0.67188-1.3828-1.5l0.50391-5.9453c0.070312-0.82812 0.76953-1.6953 1.5664-1.9375l2.6758-0.8125c0.63672-0.19141 1.2461-0.87891 1.3594-1.5352l1.5-8.7852c0.19531-1.9766 1.5586-3.5859 3.9453-3.5859 1.4922 0 1.8242 0.35938 2.4922 0.97656 5.1836-0.88281 12.172-1.1172 24.91-0.98047 0.33203 0 0.60156 0.27344 0.60156 0.60937v1.1016c0 0.33203-0.25 0.57422-0.55859 0.54297l-0.55469-0.050782c-0.30859-0.027343-0.55859 0.21094-0.55859 0.52734 0 0.15625-0.13281 0.28516-0.30078 0.28516h-9.8906c-0.16406 0-0.30078-0.13281-0.30078-0.30078v-0.082031c0-0.33594-0.26953-0.58594-0.60156-0.5625-3.3789 0.24219-7.3125 0.95703-11.227 2.2422zm-8.875-3.2656-3.9766-4.793c-0.31641-0.38281-0.27344-0.96484 0.097656-1.2969l0.42578-0.375c0.37109-0.33203 0.95313-0.30859 1.2969 0.050781l4.1797 4.3633c0.23047 0.23828 0.16406 0.53906-0.14062 0.66406-0.33594 0.13672-1.1055 0.93359-1.2617 1.2969-0.13281 0.30469-0.41016 0.34375-0.62109 0.089843zm31.172 71.184-0.49609 4.7305c-0.074219 0.69141-0.69922 1.2539-1.3945 1.2539h-8.3906c-0.69922 0-1.2617-0.56641-1.2617-1.2617v-45.441c0-0.69531 0.5625-1.2617 1.2617-1.2617h13.438c0.69922 0 1.2031 0.5625 1.1328 1.2539l-0.5 4.7266h-10.176c-0.16406 0-0.30078 0.13672-0.30078 0.30078v0.39844c0 0.16797 0.13672 0.30078 0.30078 0.30078h10.07l-0.35547 3.375h-6.4609c-0.16406 0-0.30078 0.13672-0.30078 0.30078v0.39844c0 0.16797 0.13672 0.30078 0.30078 0.30078h6.3555l-0.35156 3.375h-6.0039c-0.16406 0-0.30078 0.13672-0.30078 0.30078v0.39844c0 0.16797 0.13672 0.30078 0.30078 0.30078h5.8984l-0.35938 3.375h-8.793c-0.16406 0-0.30078 0.13672-0.30078 0.30078v0.39844c0 0.16797 0.13672 0.30078 0.30078 0.30078h8.6914l-0.35547 3.375h-5.082c-0.16406 0-0.30078 0.13672-0.30078 0.30078v0.39844c0 0.16797 0.13672 0.30078 0.30078 0.30078h4.9766l-0.35547 3.375h-4.6211c-0.16406 0-0.30078 0.13672-0.30078 0.30078v0.39844c0 0.16797 0.13672 0.30078 0.30078 0.30078h4.5156l-0.35547 3.375h-7.4141c-0.16406 0-0.30078 0.13672-0.30078 0.30078v0.39844c0 0.16797 0.13672 0.30078 0.30078 0.30078h7.3086l-0.35547 3.375h-3.6992c-0.16406 0-0.30078 0.13672-0.30078 0.30078v0.39844c0 0.16797 0.13672 0.30078 0.30078 0.30078h3.5938l-0.35547 3.375h-3.2383c-0.16406 0-0.30078 0.13672-0.30078 0.30078v0.39844c0 0.16797 0.13672 0.30078 0.30078 0.30078zm-35.566-45.121 5.7109 54.246c0.085937 0.82422 0.83203 1.4961 1.6641 1.4961h28.617c0.83203 0 1.5781-0.67188 1.6641-1.4961l5.7109-54.246c0.085937-0.82422-0.51562-1.4961-1.3477-1.4961h-40.672c-0.83203 0-1.4336 0.67188-1.3477 1.4961z" fill-rule="evenodd"/>
    </symbol>

    <!-- Recovery -->
    <symbol id="icon-recovery" viewBox="-5.0 -10.0 110.0 135.0">
      <!-- paste recovery.svg content -->
      <path d="m90 49.293c0 0.80078-0.64844 1.4492-1.4492 1.4492h-26.254c-0.55469 0-1.0625-0.31641-1.3047-0.81641l-2.9062-5.9922-2.2266 5.8711c-0.21484 0.5625-0.75391 0.93359-1.3555 0.93359h-4.2305l-3.4766 8.2383c-0.22656 0.53516-0.75391 0.88672-1.3359 0.88672h-0.027344c-0.59375-0.011719-1.1172-0.38281-1.3281-0.93359l-6.6406-17.508-4.6406 8.5625c-0.25391 0.46875-0.74219 0.75781-1.2734 0.75781h-20.109c-0.80078 0-1.4492-0.64844-1.4492-1.4492s0.64844-1.4492 1.4492-1.4492h19.246l5.7383-10.582c0.26953-0.49609 0.8125-0.78906 1.3711-0.75391 0.56641 0.039063 1.0547 0.40234 1.2578 0.92969l6.4766 17.082 2.4453-5.793c0.22656-0.53516 0.75391-0.88672 1.3359-0.88672h4.1914l3.0625-8.082c0.20312-0.53906 0.71484-0.90625 1.2891-0.93359 0.5625-0.03125 1.1133 0.29688 1.3672 0.81641l3.9766 8.1992h25.352c0.80078 0.007812 1.4492 0.65625 1.4492 1.4531zm-67.508-4.3438h6.4883l4.9141-9.0586c0.75391-1.4062 2.2188-2.2734 3.8164-2.2734l0.26953 0.011718c1.707 0.11719 3.1797 1.2148 3.7773 2.7969l3.9609 10.438c0.80078-1.1758 2.1289-1.9062 3.5938-1.9062h2.1992l2.3516-6.207c0.61719-1.6289 2.1289-2.7266 3.8633-2.8047h0.20313c1.6484 0 3.1719 0.96484 3.8945 2.4492l3.1914 6.5625h15.539c2.9883-6.168 2.0547-10.969 0.83984-13.793-2.6406-6.1602-9.5898-10.062-16.879-9.5234-6.4297 0.48047-11.613 4.3086-14.438 10.469-2.7188-6.1289-7.5195-9.8906-13.609-10.496-7.1328-0.70312-14.496 3.3047-17.516 9.5312-2.082 4.2891-1.9297 9.0898 0.30859 13.812l3.2305-0.003906zm39.809 8.6875c-1.6484 0-3.1719-0.95312-3.8945-2.4297-0.73047 1.4648-2.2461 2.4297-3.8945 2.4297h-2.3125l-2.7383 6.4688c-0.67578 1.6094-2.2461 2.6602-4 2.6602l-0.11719-0.011719c-1.7734-0.046875-3.3164-1.1367-3.9414-2.7969l-4.3945-11.605-1.6406 3.0078c-0.75391 1.4062-2.2188 2.2734-3.8086 2.2734h-5.7148c2.168 2.1094 4.5586 4.1836 7.0664 6.3516 6.3047 5.4453 12.82 11.074 15.828 17.641 0.24219 0.51953 0.75391 0.84766 1.3203 0.84766 0.57031 0 1.0781-0.32812 1.3125-0.84766 2.9883-6.5625 9.5039-12.184 15.797-17.621 1.5312-1.3281 3.1133-2.6992 4.5977-4.0391 0.87891-0.78906 1.6875-1.5703 2.4297-2.332h-11.895z"/>
    </symbol>
  </defs>
</svg>